<?xml version="1.0" encoding="utf-8" ?><svg baseProfile="full" height="1720" version="1.1" viewBox="0 0 2360 1720" width="2360" xmlns="http://www.w3.org/2000/svg" xmlns:ev="http://www.w3.org/2001/xml-events" xmlns:xlink="http://www.w3.org/1999/xlink"><defs><marker id="arrow" markerHeight="20" markerUnits="userSpaceOnUse" markerWidth="20" orient="auto" refX="16" refY="8"><path d="M0,0 L16,8 L0,16 Z" fill="#4b628b" /></marker></defs><rect fill="#ffffff" height="1720" width="2360" x="0" y="0" /><rect fill="#eef5fd" height="590" rx="24" ry="24" stroke="#a9c6e8" stroke-width="2.8" width="620" x="40" y="50" /><text fill="#223247" font-family="DejaVu Sans, Arial, Helvetica, sans-serif" font-size="44" font-weight="700" x="64" y="98"><tspan x="64" y="98">Setup</tspan></text><rect fill="#eff8f2" height="590" rx="24" ry="24" stroke="#acd3bb" stroke-width="2.8" width="620" x="690" y="50" /><text fill="#223247" font-family="DejaVu Sans, Arial, Helvetica, sans-serif" font-size="44" font-weight="700" x="714" y="98"><tspan x="714" y="98">Baseline &amp; scoring</tspan></text><rect fill="#f6f0fd" height="1100" rx="24" ry="24" stroke="#ceb8ef" stroke-width="2.8" width="980" x="1340" y="50" /><text fill="#223247" font-family="DejaVu Sans, Arial, Helvetica, sans-serif" font-size="44" font-weight="700" x="1364" y="98"><tspan x="1364" y="98">Greedy search</tspan></text><rect fill="#fdf6ea" height="1000" rx="24" ry="24" stroke="#e5c780" stroke-width="2.8" width="1270" x="40" y="680" /><text fill="#223247" font-family="DejaVu Sans, Arial, Helvetica, sans-serif" font-size="44" font-weight="700" x="64" y="728"><tspan x="64" y="728">Post-processing</tspan></text><rect fill="#fff4ee" height="500" rx="24" ry="24" stroke="#e7b9a2" stroke-width="2.8" width="620" x="1340" y="1180" /><text fill="#223247" font-family="DejaVu Sans, Arial, Helvetica, sans-serif" font-size="44" font-weight="700" x="1364" y="1228"><tspan x="1364" y="1228">Output</tspan></text><ellipse cx="350" cy="170" fill="#f7f9fd" rx="58" ry="24" stroke="#7191c4" stroke-width="2.4" /><text fill="#223247" font-family="DejaVu Sans, Arial, Helvetica, sans-serif" font-size="24" font-weight="400" text-anchor="middle" x="350" y="178.64"><tspan x="350" y="178.64">Start</tspan></text><rect fill="#fbfcfe" height="64" rx="16" ry="16" stroke="#5a7197" stroke-width="2.6" width="250" x="225.0" y="218.0" /><text fill="#223247" font-family="DejaVu Sans, Arial, Helvetica, sans-serif" font-size="26" font-weight="400" text-anchor="middle" x="350.0" y="257.36"><tspan x="350.0" y="257.36">Init and validate</tspan></text><rect fill="#fbfcfe" height="64" rx="16" ry="16" stroke="#5a7197" stroke-width="2.6" width="300" x="200.0" y="313.0" /><text fill="#223247" font-family="DejaVu Sans, Arial, Helvetica, sans-serif" font-size="26" font-weight="400" text-anchor="middle" x="350.0" y="352.36"><tspan x="350.0" y="352.36">Paint baseline state 0</tspan></text><rect fill="#fbfcfe" height="70" rx="16" ry="16" stroke="#5a7197" stroke-width="2.6" width="410" x="145.0" y="417.0" /><text fill="#223247" font-family="DejaVu Sans, Arial, Helvetica, sans-serif" font-size="26" font-weight="400" text-anchor="middle" x="350.0" y="459.36"><tspan x="350.0" y="459.36">Generate one-shift candidates</tspan></text><rect fill="#fbfcfe" height="64" rx="16" ry="16" stroke="#5a7197" stroke-width="2.6" width="340" x="830.0" y="153.0" /><text fill="#223247" font-family="DejaVu Sans, Arial, Helvetica, sans-serif" font-size="26" font-weight="400" text-anchor="middle" x="1000.0" y="192.36"><tspan x="1000.0" y="192.36">Fit baseline mvgls</tspan></text><rect fill="#fbfcfe" height="70" rx="16" ry="16" stroke="#5a7197" stroke-width="2.6" width="380" x="810.0" y="255.0" /><text fill="#223247" font-family="DejaVu Sans, Arial, Helvetica, sans-serif" font-size="26" font-weight="400" text-anchor="middle" x="1000.0" y="297.36"><tspan x="1000.0" y="297.36">Baseline IC (GIC or BIC)</tspan></text><rect fill="#fbfcfe" height="70" rx="16" ry="16" stroke="#5a7197" stroke-width="2.6" width="410" x="795.0" y="360.0" /><text fill="#223247" font-family="DejaVu Sans, Arial, Helvetica, sans-serif" font-size="26" font-weight="400" text-anchor="middle" x="1000.0" y="402.36"><tspan x="1000.0" y="402.36">Score candidates in parallel</tspan></text><rect fill="#fbfcfe" height="70" rx="16" ry="16" stroke="#5a7197" stroke-width="2.6" width="330" x="835.0" y="465.0" /><text fill="#223247" font-family="DejaVu Sans, Arial, Helvetica, sans-serif" font-size="26" font-weight="400" text-anchor="middle" x="1000.0" y="507.36"><tspan x="1000.0" y="507.36">Compute ΔIC and sort</tspan></text><rect fill="#fbfcfe" height="70" rx="16" ry="16" stroke="#5a7197" stroke-width="2.6" width="430" x="1615.0" y="150.0" /><text fill="#223247" font-family="DejaVu Sans, Arial, Helvetica, sans-serif" font-size="26" font-weight="400" text-anchor="middle" x="1830.0" y="192.36"><tspan x="1830.0" y="192.36">Init best tree and IC</tspan></text><polygon fill="#ffffff" points="1830,260.0 2020.0,315 1830,370.0 1640.0,315" stroke="#c58c12" stroke-width="2.4" /><text fill="#223247" font-family="DejaVu Sans, Arial, Helvetica, sans-serif" font-size="26" font-weight="400" text-anchor="middle" x="1830" y="324.36"><tspan x="1830" y="324.36">More candidates?</tspan></text><rect fill="#fbfcfe" height="64" rx="16" ry="16" stroke="#5a7197" stroke-width="2.6" width="200" x="1730.0" y="423.0" /><text fill="#223247" font-family="DejaVu Sans, Arial, Helvetica, sans-serif" font-size="26" font-weight="400" text-anchor="middle" x="1830.0" y="462.36"><tspan x="1830.0" y="462.36">Add shift</tspan></text><rect fill="#fbfcfe" height="64" rx="16" ry="16" stroke="#5a7197" stroke-width="2.6" width="280" x="1690.0" y="523.0" /><text fill="#223247" font-family="DejaVu Sans, Arial, Helvetica, sans-serif" font-size="26" font-weight="400" text-anchor="middle" x="1830.0" y="562.36"><tspan x="1830.0" y="562.36">Fit shifted model</tspan></text><rect fill="#fbfcfe" height="64" rx="16" ry="16" stroke="#5a7197" stroke-width="2.6" width="320" x="1670.0" y="623.0" /><text fill="#223247" font-family="DejaVu Sans, Arial, Helvetica, sans-serif" font-size="26" font-weight="400" text-anchor="middle" x="1830.0" y="662.36"><tspan x="1830.0" y="662.36">ΔIC = best − new</tspan></text><polygon fill="#ffffff" points="1830,725.0 2025.0,785 1830,845.0 1635.0,785" stroke="#c58c12" stroke-width="2.4" /><text fill="#223247" font-family="DejaVu Sans, Arial, Helvetica, sans-serif" font-size="26" font-weight="400" text-anchor="middle" x="1830" y="794.36"><tspan x="1830" y="794.36">ΔIC ≥ threshold?</tspan></text><rect fill="#edf7ee" height="68" rx="16" ry="16" stroke="#89b887" stroke-width="2.6" width="300" x="1510.0" y="906.0" /><text fill="#223247" font-family="DejaVu Sans, Arial, Helvetica, sans-serif" font-size="26" font-weight="400" text-anchor="middle" x="1660.0" y="947.36"><tspan x="1660.0" y="947.36">Accept: update best</tspan></text><rect fill="#faf0f0" height="68" rx="16" ry="16" stroke="#d2a3a2" stroke-width="2.6" width="300" x="1850.0" y="906.0" /><text fill="#223247" font-family="DejaVu Sans, Arial, Helvetica, sans-serif" font-size="26" font-weight="400" text-anchor="middle" x="2000.0" y="947.36"><tspan x="2000.0" y="947.36">Reject: keep best</tspan></text><rect fill="#fbfcfe" height="64" rx="16" ry="16" stroke="#5a7197" stroke-width="2.6" width="250" x="1705.0" y="1008.0" /><text fill="#223247" font-family="DejaVu Sans, Arial, Helvetica, sans-serif" font-size="26" font-weight="400" text-anchor="middle" x="1830.0" y="1047.36"><tspan x="1830.0" y="1047.36">Record status</tspan></text><rect fill="#fbfcfe" height="66" rx="16" ry="16" stroke="#5a7197" stroke-width="2.6" width="330" x="485.0" y="782.0" /><text fill="#223247" font-family="DejaVu Sans, Arial, Helvetica, sans-serif" font-size="26" font-weight="400" text-anchor="middle" x="650.0" y="822.36"><tspan x="650.0" y="822.36">Finalize best model</tspan></text><polygon fill="#ffffff" points="650,910.0 860.0,965 650,1020.0 440.0,965" stroke="#c58c12" stroke-width="2.4" /><text fill="#223247" font-family="DejaVu Sans, Arial, Helvetica, sans-serif" font-size="26" font-weight="400" text-anchor="middle" x="650" y="974.36"><tspan x="650" y="974.36">Compute IC weights?</tspan></text><polygon fill="#ffffff" points="650,1075.0 800.0,1125 650,1175.0 500.0,1125" stroke="#c58c12" stroke-width="2.4" /><text fill="#223247" font-family="DejaVu Sans, Arial, Helvetica, sans-serif" font-size="26" font-weight="400" text-anchor="middle" x="650" y="1134.36"><tspan x="650" y="1134.36">Any shifts?</tspan></text><polygon fill="#ffffff" points="650,1235.0 870.0,1285 650,1335.0 430.0,1285" stroke="#c58c12" stroke-width="2.4" /><text fill="#223247" font-family="DejaVu Sans, Arial, Helvetica, sans-serif" font-size="26" font-weight="400" text-anchor="middle" x="650" y="1294.36"><tspan x="650" y="1294.36">Weights parallel?</tspan></text><rect fill="#fbfcfe" height="68" rx="16" ry="16" stroke="#5a7197" stroke-width="2.6" width="360" x="290.0" y="1431.0" /><text fill="#223247" font-family="DejaVu Sans, Arial, Helvetica, sans-serif" font-size="26" font-weight="400" text-anchor="middle" x="470.0" y="1472.36"><tspan x="470.0" y="1472.36">Drop-one refits (parallel)</tspan></text><rect fill="#fbfcfe" height="68" rx="16" ry="16" stroke="#5a7197" stroke-width="2.6" width="350" x="665.0" y="1431.0" /><text fill="#223247" font-family="DejaVu Sans, Arial, Helvetica, sans-serif" font-size="26" font-weight="400" text-anchor="middle" x="840.0" y="1472.36"><tspan x="840.0" y="1472.36">Drop-one refits (serial)</tspan></text><rect fill="#fbfcfe" height="74" rx="16" ry="16" stroke="#5a7197" stroke-width="2.6" width="500" x="400.0" y="1548.0" /><text fill="#223247" font-family="DejaVu Sans, Arial, Helvetica, sans-serif" font-size="26" font-weight="400" text-anchor="middle" x="650.0" y="1592.36"><tspan x="650.0" y="1592.36">Compute weights: ICw and ER</tspan></text><rect fill="#fbfcfe" height="64" rx="16" ry="16" stroke="#5a7197" stroke-width="2.6" width="230" x="985.0" y="1093.0" /><text fill="#223247" font-family="DejaVu Sans, Arial, Helvetica, sans-serif" font-size="26" font-weight="400" text-anchor="middle" x="1100.0" y="1132.36"><tspan x="1100.0" y="1132.36">Skip weights</tspan></text><rect fill="#fbfcfe" height="70" rx="16" ry="16" stroke="#5a7197" stroke-width="2.6" width="330" x="1485.0" y="1340.0" /><text fill="#223247" font-family="DejaVu Sans, Arial, Helvetica, sans-serif" font-size="26" font-weight="400" text-anchor="middle" x="1650.0" y="1382.36"><tspan x="1650.0" y="1382.36">Assemble result</tspan></text><rect fill="#fbfcfe" height="70" rx="16" ry="16" stroke="#5a7197" stroke-width="2.6" width="360" x="1470.0" y="1455.0" /><text fill="#223247" font-family="DejaVu Sans, Arial, Helvetica, sans-serif" font-size="26" font-weight="400" text-anchor="middle" x="1650.0" y="1497.36"><tspan x="1650.0" y="1497.36">Extract regime VCVs</tspan></text><ellipse cx="1650" cy="1615" fill="#f7f9fd" rx="60" ry="24" stroke="#7191c4" stroke-width="2.4" /><text fill="#223247" font-family="DejaVu Sans, Arial, Helvetica, sans-serif" font-size="24" font-weight="400" text-anchor="middle" x="1650" y="1623.64"><tspan x="1650" y="1623.64">Return</tspan></text><polyline fill="none" marker-end="url(#arrow)" points="350,194 350,218" stroke="#4b628b" stroke-linecap="round" stroke-linejoin="round" stroke-width="5.6" /><polyline fill="none" marker-end="url(#arrow)" points="350,282 350,313" stroke="#4b628b" stroke-linecap="round" stroke-linejoin="round" stroke-width="5.6" /><polyline fill="none" marker-end="url(#arrow)" points="350,377 350,417" stroke="#4b628b" stroke-linecap="round" stroke-linejoin="round" stroke-width="5.6" /><polyline fill="none" marker-end="url(#arrow)" points="1000,217 1000,255" stroke="#4b628b" stroke-linecap="round" stroke-linejoin="round" stroke-width="5.6" /><polyline fill="none" marker-end="url(#arrow)" points="1000,325 1000,360" stroke="#4b628b" stroke-linecap="round" stroke-linejoin="round" stroke-width="5.6" /><polyline fill="none" marker-end="url(#arrow)" points="1000,430 1000,465" stroke="#4b628b" stroke-linecap="round" stroke-linejoin="round" stroke-width="5.6" /><polyline fill="none" marker-end="url(#arrow)" points="1830,220 1830,260" stroke="#4b628b" stroke-linecap="round" stroke-linejoin="round" stroke-width="5.6" /><polyline fill="none" marker-end="url(#arrow)" points="1830,370 1830,423" stroke="#4b628b" stroke-linecap="round" stroke-linejoin="round" stroke-width="5.6" /><rect fill="#ffffff" fill-opacity="0.98" height="34" rx="13" ry="13" stroke="#d3dce8" stroke-width="0.9" width="61" x="1854.5" y="375.0" /><text fill="#223247" font-family="DejaVu Sans, Arial, Helvetica, sans-serif" font-size="21" font-weight="700" text-anchor="middle" x="1885.0" y="399.56"><tspan x="1885.0" y="399.56">Yes</tspan></text><polyline fill="none" marker-end="url(#arrow)" points="1830,487 1830,523" stroke="#4b628b" stroke-linecap="round" stroke-linejoin="round" stroke-width="5.6" /><polyline fill="none" marker-end="url(#arrow)" points="1830,587 1830,623" stroke="#4b628b" stroke-linecap="round" stroke-linejoin="round" stroke-width="5.6" /><polyline fill="none" marker-end="url(#arrow)" points="1830,687 1830,725" stroke="#4b628b" stroke-linecap="round" stroke-linejoin="round" stroke-width="5.6" /><polyline fill="none" marker-end="url(#arrow)" points="1732.5,815 1660,906" stroke="#4b628b" stroke-linecap="round" stroke-linejoin="round" stroke-width="5.6" /><rect fill="#ffffff" fill-opacity="0.98" height="34" rx="13" ry="13" stroke="#d3dce8" stroke-width="0.9" width="61" x="1669.5" y="821.0" /><text fill="#223247" font-family="DejaVu Sans, Arial, Helvetica, sans-serif" font-size="21" font-weight="700" text-anchor="middle" x="1700.0" y="845.56"><tspan x="1700.0" y="845.56">Yes</tspan></text><polyline fill="none" marker-end="url(#arrow)" points="1927.5,815 2000,906" stroke="#4b628b" stroke-linecap="round" stroke-linejoin="round" stroke-width="5.6" /><rect fill="#ffffff" fill-opacity="0.98" height="34" rx="13" ry="13" stroke="#d3dce8" stroke-width="0.9" width="58" x="1931.0" y="821.0" /><text fill="#223247" font-family="DejaVu Sans, Arial, Helvetica, sans-serif" font-size="21" font-weight="700" text-anchor="middle" x="1960.0" y="845.56"><tspan x="1960.0" y="845.56">No</tspan></text><polyline fill="none" marker-end="url(#arrow)" points="1660,974 1775,1008" stroke="#4b628b" stroke-linecap="round" stroke-linejoin="round" stroke-width="5.6" /><polyline fill="none" marker-end="url(#arrow)" points="2000,974 1885,1008" stroke="#4b628b" stroke-linecap="round" stroke-linejoin="round" stroke-width="5.6" /><polyline fill="none" marker-end="url(#arrow)" points="1955,1040 2200,1040 2200,315 2020,315" stroke="#4b628b" stroke-linecap="round" stroke-linejoin="round" stroke-width="5.6" /><polyline fill="none" marker-end="url(#arrow)" points="555,452 675,452 675,185 830,185" stroke="#4b628b" stroke-linecap="round" stroke-linejoin="round" stroke-width="5.6" /><polyline fill="none" marker-end="url(#arrow)" points="1165,500 1325,500 1325,185 1615,185" stroke="#4b628b" stroke-linecap="round" stroke-linejoin="round" stroke-width="5.6" /><polyline fill="none" marker-end="url(#arrow)" points="650,848 650,910" stroke="#4b628b" stroke-linecap="round" stroke-linejoin="round" stroke-width="5.6" /><polyline fill="none" marker-end="url(#arrow)" points="650,1020 650,1075" stroke="#4b628b" stroke-linecap="round" stroke-linejoin="round" stroke-width="5.6" /><rect fill="#ffffff" fill-opacity="0.98" height="34" rx="13" ry="13" stroke="#d3dce8" stroke-width="0.9" width="61" x="675.5" y="1026.0" /><text fill="#223247" font-family="DejaVu Sans, Arial, Helvetica, sans-serif" font-size="21" font-weight="700" text-anchor="middle" x="706.0" y="1050.56"><tspan x="706.0" y="1050.56">Yes</tspan></text><polyline fill="none" marker-end="url(#arrow)" points="650,1175 650,1235" stroke="#4b628b" stroke-linecap="round" stroke-linejoin="round" stroke-width="5.6" /><rect fill="#ffffff" fill-opacity="0.98" height="34" rx="13" ry="13" stroke="#d3dce8" stroke-width="0.9" width="61" x="673.5" y="1182.0" /><text fill="#223247" font-family="DejaVu Sans, Arial, Helvetica, sans-serif" font-size="21" font-weight="700" text-anchor="middle" x="704.0" y="1206.56"><tspan x="704.0" y="1206.56">Yes</tspan></text><polyline fill="none" marker-end="url(#arrow)" points="540,1310 470,1431" stroke="#4b628b" stroke-linecap="round" stroke-linejoin="round" stroke-width="5.6" /><rect fill="#ffffff" fill-opacity="0.98" height="34" rx="13" ry="13" stroke="#d3dce8" stroke-width="0.9" width="61" x="517.5" y="1321.0" /><text fill="#223247" font-family="DejaVu Sans, Arial, Helvetica, sans-serif" font-size="21" font-weight="700" text-anchor="middle" x="548.0" y="1345.56"><tspan x="548.0" y="1345.56">Yes</tspan></text><polyline fill="none" marker-end="url(#arrow)" points="760,1310 840,1431" stroke="#4b628b" stroke-linecap="round" stroke-linejoin="round" stroke-width="5.6" /><rect fill="#ffffff" fill-opacity="0.98" height="34" rx="13" ry="13" stroke="#d3dce8" stroke-width="0.9" width="58" x="726.0" y="1321.0" /><text fill="#223247" font-family="DejaVu Sans, Arial, Helvetica, sans-serif" font-size="21" font-weight="700" text-anchor="middle" x="755.0" y="1345.56"><tspan x="755.0" y="1345.56">No</tspan></text><polyline fill="none" marker-end="url(#arrow)" points="470,1499 585,1548" stroke="#4b628b" stroke-linecap="round" stroke-linejoin="round" stroke-width="5.6" /><polyline fill="none" marker-end="url(#arrow)" points="840,1499 715,1548" stroke="#4b628b" stroke-linecap="round" stroke-linejoin="round" stroke-width="5.6" /><polyline fill="none" marker-end="url(#arrow)" points="860,965 935,965 935,1105 985,1105" stroke="#4b628b" stroke-linecap="round" stroke-linejoin="round" stroke-width="5.6" /><rect fill="#ffffff" fill-opacity="0.98" height="34" rx="13" ry="13" stroke="#d3dce8" stroke-width="0.9" width="58" x="871.0" y="922.0" /><text fill="#223247" font-family="DejaVu Sans, Arial, Helvetica, sans-serif" font-size="21" font-weight="700" text-anchor="middle" x="900.0" y="946.56"><tspan x="900.0" y="946.56">No</tspan></text><polyline fill="none" marker-end="url(#arrow)" points="800,1125 985,1125" stroke="#4b628b" stroke-linecap="round" stroke-linejoin="round" stroke-width="5.6" /><rect fill="#ffffff" fill-opacity="0.98" height="34" rx="13" ry="13" stroke="#d3dce8" stroke-width="0.9" width="58" x="866.0" y="1081.0" /><text fill="#223247" font-family="DejaVu Sans, Arial, Helvetica, sans-serif" font-size="21" font-weight="700" text-anchor="middle" x="895.0" y="1105.56"><tspan x="895.0" y="1105.56">No</tspan></text><polyline fill="none" marker-end="url(#arrow)" points="1650,1410 1650,1455" stroke="#4b628b" stroke-linecap="round" stroke-linejoin="round" stroke-width="5.6" /><polyline fill="none" marker-end="url(#arrow)" points="1650,1525 1650,1591" stroke="#4b628b" stroke-linecap="round" stroke-linejoin="round" stroke-width="5.6" /><polyline fill="none" marker-end="url(#arrow)" points="1640,315 1490,315 1490,655 650,655 650,782" stroke="#4b628b" stroke-linecap="round" stroke-linejoin="round" stroke-width="5.6" /><rect fill="#ffffff" fill-opacity="0.98" height="34" rx="13" ry="13" stroke="#d3dce8" stroke-width="0.9" width="58" x="1492.0" y="275.0" /><text fill="#223247" font-family="DejaVu Sans, Arial, Helvetica, sans-serif" font-size="21" font-weight="700" text-anchor="middle" x="1521.0" y="299.56"><tspan x="1521.0" y="299.56">No</tspan></text><polyline fill="none" marker-end="url(#arrow)" points="1215,1125 1260,1125 1260,1362 1485,1362" stroke="#4b628b" stroke-linecap="round" stroke-linejoin="round" stroke-width="5.6" /><polyline fill="none" marker-end="url(#arrow)" points="900,1585 1320,1585 1320,1388 1485,1388" stroke="#4b628b" stroke-linecap="round" stroke-linejoin="round" stroke-width="5.6" /></svg>